<svg width="1307" height="585" viewBox="0 0 1307 585" fill="none" xmlns="http://www.w3.org/2000/svg">
<path d="M1268.21 580.667L1267.38 574C1266.92 573.826 1266.5 573.618 1266.1 573.375C1265.7 573.132 1265.31 572.872 1264.93 572.594L1258.73 575.198L1253 565.302L1258.36 561.24C1258.33 560.997 1258.31 560.762 1258.31 560.536V559.13C1258.31 558.905 1258.33 558.67 1258.36 558.427L1253 554.365L1258.73 544.469L1264.93 547.073C1265.31 546.795 1265.71 546.535 1266.12 546.292C1266.54 546.049 1266.96 545.84 1267.38 545.667L1268.21 539H1279.67L1280.5 545.667C1280.95 545.84 1281.38 546.049 1281.78 546.292C1282.18 546.535 1282.57 546.795 1282.95 547.073L1289.15 544.469L1294.88 554.365L1289.51 558.427C1289.55 558.67 1289.56 558.905 1289.56 559.13V560.536C1289.56 560.762 1289.53 560.997 1289.46 561.24L1294.82 565.302L1289.09 575.198L1282.95 572.594C1282.57 572.872 1282.17 573.132 1281.75 573.375C1281.33 573.618 1280.92 573.826 1280.5 574L1279.67 580.667H1268.21ZM1271.85 576.5H1275.97L1276.7 570.979C1277.77 570.701 1278.77 570.293 1279.69 569.755C1280.61 569.217 1281.45 568.566 1282.22 567.802L1287.38 569.938L1289.41 566.396L1284.93 563.01C1285.1 562.524 1285.22 562.012 1285.29 561.474C1285.36 560.936 1285.4 560.389 1285.4 559.833C1285.4 559.278 1285.36 558.731 1285.29 558.193C1285.22 557.655 1285.1 557.142 1284.93 556.656L1289.41 553.271L1287.38 549.729L1282.22 551.917C1281.45 551.118 1280.61 550.45 1279.69 549.911C1278.77 549.373 1277.77 548.965 1276.7 548.688L1276.02 543.167H1271.91L1271.18 548.688C1270.1 548.965 1269.1 549.373 1268.18 549.911C1267.26 550.45 1266.42 551.101 1265.66 551.865L1260.5 549.729L1258.47 553.271L1262.95 556.604C1262.77 557.125 1262.65 557.646 1262.58 558.167C1262.51 558.688 1262.48 559.243 1262.48 559.833C1262.48 560.389 1262.51 560.927 1262.58 561.448C1262.65 561.969 1262.77 562.49 1262.95 563.01L1258.47 566.396L1260.5 569.938L1265.66 567.75C1266.42 568.549 1267.26 569.217 1268.18 569.755C1269.1 570.293 1270.1 570.701 1271.18 570.979L1271.85 576.5ZM1274.04 567.125C1276.06 567.125 1277.77 566.413 1279.2 564.99C1280.62 563.566 1281.33 561.847 1281.33 559.833C1281.33 557.819 1280.62 556.101 1279.2 554.677C1277.77 553.253 1276.06 552.542 1274.04 552.542C1271.99 552.542 1270.27 553.253 1268.86 554.677C1267.45 556.101 1266.75 557.819 1266.75 559.833C1266.75 561.847 1267.45 563.566 1268.86 564.99C1270.27 566.413 1271.99 567.125 1274.04 567.125Z" fill="#E3E3E3"/>
<path d="M1244 518H1307" stroke="white" stroke-width="2"/>
<g clip-path="url(#clip0_164_127)">
<path d="M22.5835 566.25V553.75H30.9168L41.3335 543.333V576.667L30.9168 566.25H22.5835ZM26.7502 562.083H32.6877L37.1668 566.562V553.437L32.6877 557.917H26.7502V562.083Z" fill="#E3E3E3"/>
</g>
<path d="M20.5002 480.833C19.3543 480.833 18.3734 480.425 17.5575 479.609C16.7415 478.793 16.3335 477.813 16.3335 476.667V451.667C16.3335 450.521 16.7415 449.54 17.5575 448.724C18.3734 447.908 19.3543 447.5 20.5002 447.5H24.6668C24.6668 445.208 25.4828 443.247 27.1147 441.615C28.7467 439.983 30.7085 439.167 33.0002 439.167C35.2918 439.167 37.2536 439.983 38.8856 441.615C40.5175 443.247 41.3335 445.208 41.3335 447.5H45.5002C46.646 447.5 47.6269 447.908 48.4429 448.724C49.2588 449.54 49.6668 450.521 49.6668 451.667V476.667C49.6668 477.813 49.2588 478.793 48.4429 479.609C47.6269 480.425 46.646 480.833 45.5002 480.833H20.5002ZM20.5002 476.667H45.5002V451.667H41.3335V455.833C41.3335 456.424 41.1338 456.918 40.7345 457.318C40.3352 457.717 39.8404 457.917 39.2502 457.917C38.6599 457.917 38.1651 457.717 37.7658 457.318C37.3665 456.918 37.1668 456.424 37.1668 455.833V451.667H28.8335V455.833C28.8335 456.424 28.6338 456.918 28.2345 457.318C27.8352 457.717 27.3404 457.917 26.7502 457.917C26.1599 457.917 25.6651 457.717 25.2658 457.318C24.8665 456.918 24.6668 456.424 24.6668 455.833V451.667H20.5002V476.667ZM28.8335 447.5H37.1668C37.1668 446.354 36.7588 445.373 35.9429 444.557C35.1269 443.741 34.146 443.333 33.0002 443.333C31.8543 443.333 30.8734 443.741 30.0575 444.557C29.2415 445.373 28.8335 446.354 28.8335 447.5Z" fill="#E3E3E3"/>
<path d="M32.9998 380.833C30.1179 380.833 27.4096 380.286 24.8748 379.193C22.3401 378.099 20.1353 376.615 18.2603 374.74C16.3853 372.865 14.9009 370.66 13.8071 368.125C12.7134 365.59 12.1665 362.882 12.1665 360C12.1665 357.083 12.7134 354.366 13.8071 351.849C14.9009 349.332 16.3853 347.135 18.2603 345.26L21.1769 348.177C19.6491 349.705 18.4599 351.476 17.6092 353.49C16.7585 355.503 16.3332 357.674 16.3332 360C16.3332 364.653 17.9478 368.594 21.1769 371.823C24.4061 375.052 28.3471 376.667 32.9998 376.667C37.6526 376.667 41.5936 375.052 44.8228 371.823C48.0519 368.594 49.6665 364.653 49.6665 360C49.6665 357.674 49.2412 355.503 48.3905 353.49C47.5398 351.476 46.3505 349.705 44.8228 348.177L47.7394 345.26C49.6144 347.135 51.0988 349.332 52.1925 351.849C53.2863 354.366 53.8332 357.083 53.8332 360C53.8332 362.882 53.2863 365.59 52.1925 368.125C51.0988 370.66 49.6144 372.865 47.7394 374.74C45.8644 376.615 43.6596 378.099 41.1248 379.193C38.5901 380.286 35.8818 380.833 32.9998 380.833ZM30.9165 362.083V339.167H35.0832V362.083H30.9165Z" fill="#E3E3E3"/>
<path d="M20.4998 278.75C18.2082 278.75 16.2464 277.934 14.6144 276.302C12.9825 274.67 12.1665 272.708 12.1665 270.417C12.1665 268.125 12.9825 266.163 14.6144 264.531C16.2464 262.899 18.2082 262.083 20.4998 262.083C21.2984 262.083 22.0363 262.179 22.7134 262.37C23.3905 262.561 24.0415 262.847 24.6665 263.229V245.417L49.6665 241.25V266.25C49.6665 268.542 48.8505 270.503 47.2186 272.135C45.5866 273.767 43.6248 274.583 41.3332 274.583C39.0415 274.583 37.0797 273.767 35.4478 272.135C33.8158 270.503 32.9998 268.542 32.9998 266.25C32.9998 263.958 33.8158 261.997 35.4478 260.365C37.0797 258.733 39.0415 257.917 41.3332 257.917C42.1318 257.917 42.8696 258.012 43.5467 258.203C44.2238 258.394 44.8748 258.681 45.4998 259.062V250.469L28.8332 253.75V270.417C28.8332 272.708 28.0172 274.67 26.3853 276.302C24.7533 277.934 22.7915 278.75 20.4998 278.75Z" fill="#E3E3E3"/>
<path d="M49.5625 178.75C50.1875 178.75 50.7083 178.542 51.125 178.125C51.5417 177.708 51.75 177.188 51.75 176.562V168.125C51.75 167.674 51.5938 167.266 51.2812 166.901C50.9688 166.536 50.5694 166.285 50.0833 166.146L42.8958 164.688C42.4097 164.618 41.9149 164.661 41.4115 164.818C40.908 164.974 40.5 165.208 40.1875 165.521L35.2917 170.417C33.9722 169.653 32.7222 168.811 31.5417 167.891C30.3611 166.97 29.2326 165.972 28.1562 164.896C27.0104 163.785 25.9601 162.63 25.0052 161.432C24.0503 160.234 23.2257 158.993 22.5312 157.708L27.5833 152.604C27.8611 152.326 28.0521 151.997 28.1562 151.615C28.2604 151.233 28.2778 150.764 28.2083 150.208L26.8542 142.917C26.7847 142.465 26.559 142.075 26.1771 141.745C25.7951 141.415 25.3611 141.25 24.875 141.25H16.4375C15.8125 141.25 15.2917 141.458 14.875 141.875C14.4583 142.292 14.25 142.812 14.25 143.438C14.25 147.778 15.1962 152.066 17.0885 156.302C18.9809 160.538 21.6632 164.392 25.1354 167.865C28.6076 171.337 32.4618 174.019 36.6979 175.911C40.934 177.804 45.2222 178.75 49.5625 178.75ZM20.6042 153.75C20.0139 152.396 19.5625 151.024 19.25 149.635C18.9375 148.247 18.6944 146.84 18.5208 145.417H23.1042L24.0417 150.312L20.6042 153.75ZM39.25 172.292L42.6875 168.854L47.5833 169.896V174.479C46.1597 174.375 44.7535 174.132 43.3646 173.75C41.9757 173.368 40.6042 172.882 39.25 172.292Z" fill="#E3E3E3"/>
<path d="M24.3022 62.0833L35.9689 73.75L33.0002 76.6666L16.3335 60L33.0002 43.3333L35.9689 46.25L24.3022 57.9166H49.6668V62.0833H24.3022Z" fill="#E3E3E3"/>
<path d="M0 518H63" stroke="white" stroke-width="2"/>
<path d="M640.5 39.5833H646.75V27.0833H659.25V39.5833H665.5V20.8333L653 11.4583L640.5 20.8333V39.5833ZM636.333 43.75V18.75L653 6.25L669.667 18.75V43.75H655.083V31.25H650.917V43.75H636.333Z" fill="#E3E3E3"/>
<defs>
<clipPath id="clip0_164_127">
<rect width="50" height="50" fill="white" transform="translate(8 535)"/>
</clipPath>
</defs>
</svg>
